# Blender v2.91.2 OBJ File: 'barrier.blend'
# www.blender.org
mtllib barrier.mtl
o Plane
v -2.000000 1.184798 0.000000
v -2.000000 3.184798 0.000000
v 2.000000 1.184798 0.000000
v 0.000000 1.184798 0.000000
v 2.000000 3.184798 0.000000
v 0.000000 3.184798 0.000000
vt 0.000000 0.000000
vt 1.000000 0.000000
vt 1.000000 1.000000
vt 0.000000 1.000000
vt 0.000000 0.000000
vt 0.000000 1.000000
vn 0.0000 0.0000 1.0000
usemtl MeshMat
s off
f 1/1/1 4/2/1 6/3/1 2/4/1
f 3/5/1 5/6/1 6/3/1 4/2/1
o Plane.001
v 2.175963 -1.000000 0.788767
v 2.083897 1.206195 0.488276
v 2.175963 0.000000 0.788767
v 1.797860 0.000000 0.883233
v 1.797860 -1.000000 0.883233
v -2.175963 -1.000000 0.788767
v -2.083897 1.206195 0.488276
v -2.175963 0.000000 0.788767
v 0.000000 -1.000000 0.788767
v 0.000000 1.206195 0.488276
v 0.000000 0.000000 0.788767
v -1.797860 0.000000 0.883233
v -1.797860 -1.000000 0.883233
v 0.000000 -1.000000 0.883233
v 0.000000 0.000000 0.883233
v 2.175963 -1.000000 -0.788767
v 2.083897 1.206195 -0.488276
v 2.175963 -1.000000 0.000000
v 2.083897 1.206195 0.000000
v 2.175963 0.000000 -0.788767
v 1.797860 0.000000 -0.883233
v 1.797860 -1.000000 -0.883233
v 0.000000 1.206195 0.000000
v 0.000000 -1.000000 0.000000
v -2.175963 -1.000000 -0.788767
v -2.083897 1.206195 -0.488276
v -2.175963 -1.000000 0.000000
v -2.083897 1.206195 0.000000
v -2.175963 0.000000 -0.788767
v 0.000000 -1.000000 -0.788767
v 0.000000 1.206195 -0.488276
v 0.000000 0.000000 -0.788767
v -1.797860 0.000000 -0.883233
v -1.797860 -1.000000 -0.883233
v 0.000000 -1.000000 -0.883233
v 0.000000 0.000000 -0.883233
vt 0.375000 0.500000
vt 0.375000 0.750000
vt 0.250000 0.750000
vt 0.000000 0.000000
vt 0.625000 0.500000
vt 0.625000 0.750000
vt 0.500000 0.750000
vt 0.000000 0.000000
vt 0.625000 0.875000
vt 0.500000 0.875000
vt 0.500000 0.875000
vt 0.500000 0.750000
vt 0.375000 0.750000
vt 0.250000 0.750000
vt 0.375000 0.875000
vt 0.375000 0.500000
vt 0.375000 0.750000
vt 0.500000 0.750000
vt 0.625000 0.750000
vt 0.625000 0.500000
vt 0.500000 0.750000
vt 0.375000 0.750000
vt 0.250000 0.750000
vt 0.375000 0.750000
vt 0.500000 0.750000
vt 0.625000 0.750000
vt 0.625000 0.875000
vt 0.500000 0.750000
vt 0.500000 0.875000
vt 0.500000 0.875000
vt 0.250000 0.750000
vt 0.375000 0.750000
vt 0.375000 0.875000
vt 0.375000 0.750000
vt 0.625000 0.750000
vt 0.500000 0.750000
vt 0.500000 0.750000
vt 0.375000 0.750000
vn 0.0000 -1.0000 0.0000
vn 0.9989 0.0377 -0.0295
vn 0.0000 1.0000 0.0000
vn 0.0000 0.2417 0.9703
vn 0.0000 0.0000 1.0000
vn 0.2424 0.0000 0.9702
vn -0.9989 0.0377 -0.0295
vn -0.2424 0.0000 0.9702
vn 0.9989 0.0377 0.0295
vn 0.0000 0.2417 -0.9703
vn 0.0000 0.0000 -1.0000
vn 0.2424 0.0000 -0.9702
vn -0.9989 0.0377 0.0295
vn -0.2424 0.0000 -0.9702
usemtl Material.002
s off
f 24/7/2 7/8/2 15/9/2 30/10/2
f 24/7/3 25/11/3 8/12/3 9/13/3 7/8/3
f 29/14/4 16/15/4 8/12/4 25/11/4
f 9/13/4 17/16/4 21/17/4 10/18/4
f 15/9/2 7/8/2 11/19/2 20/20/2
f 9/13/5 8/12/5 16/15/5 17/16/5
f 11/19/6 10/18/6 21/17/6 20/21/6
f 7/8/7 9/13/7 10/18/7 11/19/7
f 33/22/2 30/10/2 15/9/2 12/23/2
f 33/22/8 12/23/8 14/24/8 13/25/8 34/26/8
f 29/14/4 34/26/4 13/25/4 16/15/4
f 14/24/4 18/27/4 21/17/4 17/16/4
f 15/9/2 20/20/2 19/28/2 12/23/2
f 14/24/5 17/16/5 16/15/5 13/25/5
f 19/28/6 20/21/6 21/17/6 18/27/6
f 12/23/9 19/28/9 18/27/9 14/24/9
f 24/7/2 30/10/2 36/29/2 22/30/2
f 24/7/10 22/30/10 26/31/10 23/32/10 25/11/10
f 29/14/4 25/11/4 23/32/4 37/33/4
f 26/31/4 27/34/4 42/35/4 38/36/4
f 36/29/2 41/37/2 28/38/2 22/30/2
f 26/31/11 38/36/11 37/33/11 23/32/11
f 28/38/12 41/39/12 42/35/12 27/34/12
f 22/30/13 28/38/13 27/34/13 26/31/13
f 33/22/2 31/40/2 36/29/2 30/10/2
f 33/22/14 34/26/14 32/41/14 35/42/14 31/40/14
f 29/14/4 37/33/4 32/41/4 34/26/4
f 35/42/4 38/36/4 42/35/4 39/43/4
f 36/29/2 31/40/2 40/44/2 41/37/2
f 35/42/11 32/41/11 37/33/11 38/36/11
f 40/44/12 39/43/12 42/35/12 41/39/12
f 31/40/15 35/42/15 39/43/15 40/44/15
