# Blender v2.91.2 OBJ File: 'barrier.blend'
# www.blender.org
mtllib barrier.mtl
o Plane.001
v 2.175963 0.000000 0.788767
v 2.083897 2.206195 0.488276
v 2.175963 1.000000 0.788767
v 1.797860 1.000000 0.883233
v 1.797860 0.000000 0.883233
v -2.175963 0.000000 0.788767
v -2.083897 2.206195 0.488276
v -2.175963 1.000000 0.788767
v 0.000000 0.000000 0.788767
v 0.000000 2.206195 0.488276
v 0.000000 1.000000 0.788767
v -1.797860 1.000000 0.883233
v -1.797860 0.000000 0.883233
v 0.000000 0.000000 0.883233
v 0.000000 1.000000 0.883233
v 2.175963 0.000000 -0.788767
v 2.083897 2.206195 -0.488276
v 2.175963 0.000000 0.000000
v 2.083897 2.206195 0.000000
v 2.175963 1.000000 -0.788767
v 1.797860 1.000000 -0.883233
v 1.797860 0.000000 -0.883233
v 2.000000 2.118487 0.000000
v 2.000000 4.118487 0.000000
v 0.000000 2.206195 0.000000
v 0.000000 0.000000 0.000000
v -2.175963 0.000000 -0.788767
v -2.083897 2.206195 -0.488276
v -2.175963 0.000000 0.000000
v -2.083897 2.206195 0.000000
v -2.175963 1.000000 -0.788767
v 0.000000 0.000000 -0.788767
v 0.000000 2.206195 -0.488276
v 0.000000 1.000000 -0.788767
v -1.797860 1.000000 -0.883233
v -1.797860 0.000000 -0.883233
v 0.000000 0.000000 -0.883233
v 0.000000 1.000000 -0.883233
v 0.000000 2.118487 0.000000
v 0.000000 4.118487 0.000000
v -2.000000 2.118487 0.000000
v -2.000000 4.118487 0.000000
vt 0.589952 0.166862
vt 0.431162 0.271554
vt 0.002534 0.221219
vt 0.049016 0.000156
vt 0.589952 0.682262
vt 0.486199 0.628276
vt 0.459093 0.435398
vt 0.207725 0.919765
vt 0.152075 0.830206
vt 0.030747 0.530571
vt 0.026373 0.510305
vt 0.386346 0.433268
vt 0.371409 0.282844
vt 0.000156 0.242247
vt 0.589952 0.166862
vt 0.431162 0.271554
vt 0.459093 0.435398
vt 0.486199 0.628276
vt 0.589952 0.682262
vt 0.386346 0.433268
vt 0.371409 0.282844
vt 0.002534 0.221219
vt 0.431162 0.271554
vt 0.459093 0.435398
vt 0.486199 0.628276
vt 0.152075 0.830206
vt 0.386346 0.433268
vt 0.026373 0.510305
vt 0.030747 0.530571
vt 0.000156 0.242247
vt 0.371409 0.282844
vt 0.431162 0.271554
vt 0.486199 0.628276
vt 0.459093 0.435398
vt 0.386346 0.433268
vt 0.371409 0.282844
vt 0.999844 0.000156
vt 0.590263 0.000156
vt 0.590263 0.409737
vt 0.999844 0.409737
vt 0.590263 0.409737
vt 0.590263 0.000156
vn 0.0000 -1.0000 0.0000
vn 0.9989 0.0377 -0.0295
vn 0.0000 1.0000 0.0000
vn 0.0000 0.2417 0.9703
vn 0.0000 0.0000 1.0000
vn 0.2424 0.0000 0.9702
vn -0.9989 0.0377 -0.0295
vn -0.2424 0.0000 0.9702
vn 0.9989 0.0377 0.0295
vn 0.0000 0.2417 -0.9703
vn 0.0000 0.0000 -1.0000
vn 0.2424 0.0000 -0.9702
vn -0.9989 0.0377 0.0295
vn -0.2424 0.0000 -0.9702
usemtl Material.002
s off
f 18/1/1 1/2/1 9/3/1 26/4/1
f 18/1/2 19/5/2 2/6/2 3/7/2 1/2/2
f 25/8/3 10/9/3 2/6/3 19/5/3
f 3/7/3 11/10/3 15/11/3 4/12/3
f 9/3/1 1/2/1 5/13/1 14/14/1
f 3/7/4 2/6/4 10/9/4 11/10/4
f 5/13/5 4/12/5 15/11/5 14/14/5
f 1/2/6 3/7/6 4/12/6 5/13/6
f 29/15/1 26/4/1 9/3/1 6/16/1
f 29/15/7 6/16/7 8/17/7 7/18/7 30/19/7
f 25/8/3 30/19/3 7/18/3 10/9/3
f 8/17/3 12/20/3 15/11/3 11/10/3
f 9/3/1 14/14/1 13/21/1 6/16/1
f 8/17/4 11/10/4 10/9/4 7/18/4
f 13/21/5 14/14/5 15/11/5 12/20/5
f 6/16/8 13/21/8 12/20/8 8/17/8
f 18/1/1 26/4/1 32/22/1 16/23/1
f 18/1/9 16/23/9 20/24/9 17/25/9 19/5/9
f 25/8/3 19/5/3 17/25/3 33/26/3
f 20/24/3 21/27/3 38/28/3 34/29/3
f 32/22/1 37/30/1 22/31/1 16/23/1
f 20/24/10 34/29/10 33/26/10 17/25/10
f 22/31/11 37/30/11 38/28/11 21/27/11
f 16/23/12 22/31/12 21/27/12 20/24/12
f 29/15/1 27/32/1 32/22/1 26/4/1
f 29/15/13 30/19/13 28/33/13 31/34/13 27/32/13
f 25/8/3 33/26/3 28/33/3 30/19/3
f 31/34/3 34/29/3 38/28/3 35/35/3
f 32/22/1 27/32/1 36/36/1 37/30/1
f 31/34/10 28/33/10 33/26/10 34/29/10
f 36/36/11 35/35/11 38/28/11 37/30/11
f 27/32/14 31/34/14 35/35/14 36/36/14
usemtl Material.001
f 39/37/5 23/38/5 24/39/5 40/40/5
f 39/37/5 40/40/5 42/41/5 41/42/5
