# Blender v2.91.2 OBJ File: 'barrier.blend'
# www.blender.org
mtllib barrier.mtl
o Cube
v 0.475000 3.000000 -3.000000
v 0.475000 0.000000 -3.000000
v 0.475000 3.000000 3.000000
v 0.475000 0.000000 3.000000
v -0.475000 3.000000 -3.000000
v -0.475000 0.000000 -3.000000
v -0.475000 3.000000 3.000000
v -0.475000 0.000000 3.000000
v 0.475000 1.500000 -3.000000
v -0.475000 1.500000 3.000000
v 0.475000 1.500000 3.000000
v -0.475000 1.500000 -3.000000
v 0.812500 0.401400 -3.000000
v 0.812500 0.000000 -3.000000
v 0.812500 0.401400 3.000000
v 0.812500 0.000000 3.000000
v -0.812500 0.000000 -3.000000
v -0.812500 0.000000 3.000000
v -0.812500 0.401400 -3.000000
v -0.812500 0.401400 3.000000
v -0.250000 0.000000 3.000000
v -0.250000 3.000000 -3.000000
v -0.250000 1.500000 -3.000000
v -0.250000 0.000000 -3.000000
v -0.250000 3.000000 3.000000
v -0.250000 1.500000 3.000000
v 0.250000 0.000000 -3.000000
v 0.250000 3.000000 3.000000
v 0.250000 1.500000 3.000000
v 0.250000 0.000000 3.000000
v 0.250000 3.000000 -3.000000
v 0.250000 1.500000 -3.000000
v -0.125000 0.000000 3.000000
v -0.125000 3.000000 -3.000000
v -0.125000 1.500000 -3.000000
v -0.125000 0.000000 -3.000000
v -0.125000 3.000000 3.000000
v -0.125000 1.500000 3.000000
v 0.125000 0.000000 -3.000000
v 0.125000 3.000000 3.000000
v 0.125000 1.500000 3.000000
v 0.125000 0.000000 3.000000
v 0.125000 3.000000 -3.000000
v 0.125000 1.500000 -3.000000
v -0.125000 0.000000 3.000000
v 0.125000 3.000000 3.000000
v -0.125000 3.000000 3.000000
v -0.125000 1.500000 3.000000
v 0.125000 0.000000 3.000000
v 0.125000 1.500000 3.000000
v -0.125000 0.000000 2.800000
v 0.000000 0.000000 2.800000
v 0.125000 3.000000 2.800000
v -0.125000 3.000000 2.800000
v -0.125000 1.500000 2.800000
v 0.125000 0.000000 2.800000
v 0.125000 1.500000 2.800000
v 0.125000 0.000000 -2.800000
v 0.000000 0.000000 -2.800000
v -0.125000 0.000000 -2.800000
v -0.125000 3.000000 -2.800000
v -0.125000 1.500000 -2.800000
v 0.125000 3.000000 -2.800000
v 0.125000 1.500000 -2.800000
v 0.000000 1.680000 2.673000
v 0.000000 5.520000 2.673000
v 0.000000 1.680000 -2.673000
v 0.000000 5.520000 -2.673000
vt 0.657812 0.467187
vt 0.718750 0.500000
vt 0.718750 0.750000
vt 0.657812 0.782812
vt 0.781250 0.500000
vt 0.809375 0.500000
vt 0.809375 0.750000
vt 0.781250 0.750000
vt 0.508340 0.000000
vt 0.625000 0.000000
vt 0.625000 0.315625
vt 0.500000 0.315625
vt 0.500000 0.434375
vt 0.500000 0.815625
vt 0.281250 0.500000
vt 0.342188 0.467187
vt 0.342188 0.782813
vt 0.281250 0.750000
vt 0.500000 0.406250
vt 0.625000 0.406250
vt 0.396966 0.771328
vt 0.396966 0.478672
vt 0.375000 0.934375
vt 0.500000 0.934375
vt 0.408450 0.967188
vt 0.375000 0.967188
vt 0.500000 0.843750
vt 0.375000 0.843750
vt 0.358594 0.483594
vt 0.358594 0.766406
vt 0.375000 0.000000
vt 0.409701 0.000000
vt 0.408450 0.282812
vt 0.375000 0.282812
vt 0.190625 0.500000
vt 0.190625 0.750000
vt 0.157813 0.750000
vt 0.157813 0.500000
vt 0.375000 0.315625
vt 0.625000 0.343750
vt 0.500000 0.343750
vt 0.375000 0.343750
vt 0.375000 0.406250
vt 0.625000 0.843750
vt 0.375000 0.906250
vt 0.500000 0.906250
vt 0.218750 0.500000
vt 0.218750 0.750000
vt 0.765625 0.500000
vt 0.765625 0.750000
vt 0.500000 0.890625
vt 0.625000 0.890625
vt 0.625000 0.906250
vt 0.375000 0.890625
vt 0.265625 0.500000
vt 0.265625 0.750000
vt 0.500000 0.390625
vt 0.625000 0.390625
vt 0.375000 0.390625
vt 0.500000 0.859375
vt 0.625000 0.859375
vt 0.625000 0.859375
vt 0.500000 0.859375
vt 0.625000 0.859375
vt 0.625000 0.390625
vt 0.625000 0.359375
vt 0.625000 0.890625
vt 0.234375 0.500000
vt 0.234375 0.750000
vt 0.625000 0.359375
vt 0.500000 0.359375
vt 0.375000 0.359375
vt 0.734375 0.500000
vt 0.734375 0.750000
vt 0.375000 0.859375
vt 0.625000 0.934375
vt 0.375000 0.890625
vt 0.500000 0.890625
vt 0.000000 0.000000
vt 0.000000 0.000000
vt 0.000000 0.000000
vt 0.000000 0.000000
vt 0.375000 0.859375
vt 0.625000 0.890625
vt 0.765625 0.750000
vt 0.734375 0.750000
vt 0.500000 0.859375
vt 0.500000 0.890625
vt 0.375000 0.890625
vt 0.375000 0.875000
vt 0.375000 0.859375
vt 0.765625 0.750000
vt 0.734375 0.750000
vt 0.500000 0.359375
vt 0.500000 0.390625
vt 0.375000 0.390625
vt 0.375000 0.375000
vt 0.375000 0.359375
vt 0.734375 0.500000
vt 0.765625 0.500000
vt 0.000000 0.000000
vt 1.000000 0.000000
vt 1.000000 1.000000
vt 0.000000 1.000000
vn 0.0000 1.0000 0.0000
vn -1.0000 0.0000 0.0000
vn 1.0000 0.0000 0.0000
vn 0.0000 -1.0000 0.0000
vn 0.0000 0.0000 -1.0000
vn 0.9559 0.2937 0.0000
vn -0.0000 0.0000 1.0000
vn -0.9559 0.2937 0.0000
usemtl Material
s off
f 1/1/1 31/2/1 28/3/1 3/4/1
f 22/5/1 5/6/1 7/7/1 25/8/1
f 10/9/2 7/10/2 5/11/2 12/12/2
f 9/13/3 1/1/3 3/4/3 11/14/3
f 27/15/4 2/16/4 4/17/4 30/18/4
f 32/19/5 31/20/5 1/1/5 9/13/5
f 9/13/6 11/14/6 15/21/6 13/22/6
f 8/23/7 10/24/7 20/25/7 18/26/7
f 11/14/7 29/27/7 30/28/7 4/17/7
f 14/29/3 13/22/3 15/21/3 16/30/3
f 11/14/7 4/17/7 16/30/7 15/21/7
f 2/16/5 9/13/5 13/22/5 14/29/5
f 4/17/4 2/16/4 14/29/4 16/30/4
f 18/31/2 20/32/2 19/33/2 17/34/2
f 6/35/4 8/36/4 18/37/4 17/38/4
f 10/9/8 12/12/8 19/33/8 20/32/8
f 12/12/5 6/39/5 17/34/5 19/33/5
f 5/11/5 22/40/5 23/41/5 12/12/5
f 12/12/5 23/41/5 24/42/5 6/39/5
f 27/43/5 32/19/5 9/13/5 2/16/5
f 3/4/7 28/44/7 29/27/7 11/14/7
f 21/45/7 26/46/7 10/24/7 8/23/7
f 6/35/4 24/47/4 21/48/4 8/36/4
f 34/49/1 22/5/1 25/8/1 37/50/1
f 38/51/7 37/52/7 25/53/7 26/46/7
f 33/54/7 38/51/7 26/46/7 21/45/7
f 39/55/4 27/15/4 30/18/4 42/56/4
f 44/57/5 43/58/5 31/20/5 32/19/5
f 39/59/5 44/57/5 32/19/5 27/43/5
f 41/60/7 40/61/7 46/62/7 50/63/7
f 53/64/1 63/65/1 61/66/1 54/67/1
f 24/47/4 36/68/4 33/69/4 21/48/4
f 23/41/5 22/40/5 34/70/5 35/71/5
f 24/42/5 23/41/5 35/71/5 36/72/5
f 31/2/1 43/73/1 40/74/1 28/3/1
f 29/27/7 28/44/7 40/61/7 41/60/7
f 30/28/7 29/27/7 41/60/7 42/75/7
f 26/46/7 25/53/7 7/76/7 10/24/7
f 38/51/7 33/54/7 45/77/7 48/78/7
f 56/79/4 51/80/4 60/81/4 58/82/4
f 42/75/7 41/60/7 50/63/7 49/83/7
f 37/52/7 38/51/7 48/78/7 47/84/7
f 40/74/7 37/50/7 47/85/7 46/86/7
f 57/87/7 53/64/7 54/67/7 55/88/7 51/89/7 52/90/7 56/91/7
f 50/63/2 46/62/2 53/64/2 57/87/2
f 47/84/3 48/78/3 55/88/3 54/67/3
f 46/86/4 47/85/4 54/92/4 53/93/4
f 49/83/2 50/63/2 57/87/2 56/91/2
f 48/78/3 45/77/3 51/89/3 55/88/3
f 62/94/5 61/66/5 63/65/5 64/95/5 58/96/5 59/97/5 60/98/5
f 35/71/3 34/70/3 61/66/3 62/94/3
f 44/57/2 39/59/2 58/96/2 64/95/2
f 36/72/3 35/71/3 62/94/3 60/98/3
f 43/58/2 44/57/2 64/95/2 63/65/2
f 34/49/4 43/73/4 63/99/4 61/100/4
usemtl Material.001
f 65/101/2 66/102/2 68/103/2 67/104/2
