# Blender v2.91.2 OBJ File: 'excavator.blend'
# www.blender.org
mtllib excavator.mtl
o Cube
v -2.000000 0.000000 -2.000000
v 3.000000 -1.000000 -3.310093
v 3.000000 -0.310093 -4.000000
v 3.000000 -0.907570 -3.655046
v 3.000000 -0.655046 -3.907570
v -3.000000 -0.310093 -4.000000
v -3.000000 -1.000000 -3.310093
v -3.000000 -0.655046 -3.907570
v -3.000000 -0.907570 -3.655046
v 3.000000 -0.192481 -4.000000
v 3.000000 0.468771 -3.338748
v 3.000000 0.138145 -3.911409
v 3.000000 0.380180 -3.669374
v -3.000000 0.468771 -3.338748
v -3.000000 -0.192481 -4.000000
v -3.000000 0.380180 -3.669374
v -3.000000 0.138145 -3.911409
v 2.000000 1.000000 -2.000000
v 2.000000 0.000000 -2.000000
v -2.000000 1.000000 -2.000000
v 1.500000 -0.907570 -3.655046
v 1.500000 -0.655046 -3.907570
v 1.500000 -0.310093 -4.000000
v 1.500000 -1.000000 -3.310093
v 1.500000 0.468771 -3.338748
v 1.500000 0.380180 -3.669374
v 1.500000 0.138145 -3.911409
v 1.500000 -0.192481 -4.000000
v -1.500000 -0.655046 -3.907570
v -1.500000 -0.907570 -3.655046
v -1.500000 -1.000000 -3.310093
v -1.500000 0.380180 -3.669374
v -1.500000 0.138145 -3.911409
v -1.500000 -0.192481 -4.000000
v -1.500000 -0.310093 -4.000000
v -1.500000 0.468771 -3.338748
v -2.000000 0.000000 2.000000
v 3.000000 0.468771 0.000000
v 3.000000 -1.000000 0.000000
v -3.000000 0.468771 0.000000
v -3.000000 -1.000000 0.000000
v 3.000000 -1.000000 3.310093
v 3.000000 -0.310093 4.000000
v 3.000000 -0.907570 3.655046
v 3.000000 -0.655046 3.907570
v -3.000000 -0.310093 4.000000
v -3.000000 -1.000000 3.310093
v -3.000000 -0.655046 3.907570
v -3.000000 -0.907570 3.655046
v 3.000000 -0.192481 4.000000
v 3.000000 0.468771 3.338748
v 3.000000 0.138145 3.911409
v 3.000000 0.380180 3.669374
v -3.000000 0.468771 3.338748
v -3.000000 -0.192481 4.000000
v -3.000000 0.380180 3.669374
v -3.000000 0.138145 3.911409
v -2.000000 1.000000 0.000000
v -2.000000 0.000000 0.000000
v 2.000000 1.000000 2.000000
v 2.000000 0.000000 2.000000
v 2.000000 1.000000 0.000000
v 2.000000 0.000000 0.000000
v -2.000000 1.000000 2.000000
v 1.500000 -1.000000 0.000000
v 1.500000 -0.907570 3.655046
v 1.500000 -0.655046 3.907570
v 1.500000 -0.310093 4.000000
v 1.500000 0.468771 0.000000
v 1.500000 -1.000000 3.310093
v 1.500000 0.468771 3.338748
v 1.500000 0.380180 3.669374
v 1.500000 0.138145 3.911409
v 1.500000 -0.192481 4.000000
v -1.500000 0.468771 0.000000
v -1.500000 -0.655046 3.907570
v -1.500000 -1.000000 0.000000
v -1.500000 -0.907570 3.655046
v -1.500000 -1.000000 3.310093
v -1.500000 0.380180 3.669374
v -1.500000 0.138145 3.911409
v -1.500000 -0.192481 4.000000
v -1.500000 -0.310093 4.000000
v -1.500000 0.468771 3.338748
vt 0.461238 0.437500
vt 0.485967 0.437500
vt 0.485967 0.500000
vt 0.461238 0.500000
vt 0.375000 0.000000
vt 0.625000 0.000000
vt 0.625000 0.250000
vt 0.375000 0.250000
vt 0.312500 0.543119
vt 0.375000 0.543119
vt 0.375000 0.750000
vt 0.312500 0.750000
vt 0.812500 0.541328
vt 0.875000 0.541328
vt 0.875000 0.750000
vt 0.812500 0.750000
vt 0.187500 0.543119
vt 0.125000 0.543119
vt 0.125000 0.521560
vt 0.187500 0.521560
vt 0.125000 0.500000
vt 0.187500 0.500000
vt 0.418119 0.312500
vt 0.418119 0.250000
vt 0.461238 0.250000
vt 0.461238 0.312500
vt 0.375000 0.000000
vt 0.625000 0.000000
vt 0.625000 0.208672
vt 0.608342 0.229336
vt 0.557451 0.244463
vt 0.485967 0.250000
vt 0.418119 0.244223
vt 0.386554 0.228440
vt 0.375000 0.206881
vt 0.687500 0.541328
vt 0.625000 0.541328
vt 0.625000 0.520664
vt 0.687500 0.520664
vt 0.625000 0.437500
vt 0.625000 0.500000
vt 0.555483 0.500000
vt 0.555483 0.437500
vt 0.386554 0.521560
vt 0.418119 0.505777
vt 0.557451 0.505537
vt 0.608342 0.520664
vt 0.625000 0.750000
vt 0.375000 0.250000
vt 0.625000 0.250000
vt 0.625000 0.500000
vt 0.375000 0.500000
vt 0.485967 0.312500
vt 0.555483 0.312500
vt 0.812500 0.520664
vt 0.625000 0.937500
vt 0.187500 0.750000
vt 0.375000 0.500000
vt 0.625000 0.500000
vt 0.625000 0.750000
vt 0.375000 0.750000
vt 0.687500 0.750000
vt 0.312500 0.521560
vt 0.375000 0.521560
vt 0.312500 0.500000
vt 0.375000 0.500000
vt 0.418119 0.500000
vt 0.418119 0.437500
vt 0.125000 0.500000
vt 0.375000 0.500000
vt 0.375000 0.750000
vt 0.125000 0.750000
vt 0.625000 0.500000
vt 0.875000 0.500000
vt 0.875000 0.750000
vt 0.625000 0.750000
vt 0.125000 0.750000
vt 0.875000 0.520664
vt 0.625000 0.250000
vt 0.625000 0.312500
vt 0.555484 0.250000
vt 0.461238 0.437500
vt 0.461238 0.500000
vt 0.485967 0.500000
vt 0.485967 0.437500
vt 0.375000 0.937500
vt 0.375000 1.000000
vt 0.625000 1.000000
vt 0.375000 0.000000
vt 0.625000 0.000000
vt 0.312500 0.543119
vt 0.375000 0.543119
vt 0.812500 0.541328
vt 0.875000 0.541328
vt 0.187500 0.543119
vt 0.187500 0.521560
vt 0.125000 0.521560
vt 0.125000 0.543119
vt 0.187500 0.500000
vt 0.125000 0.500000
vt 0.418119 0.312500
vt 0.461238 0.312500
vt 0.461238 0.250000
vt 0.418119 0.250000
vt 0.375000 0.206881
vt 0.386554 0.228440
vt 0.418119 0.244223
vt 0.485967 0.250000
vt 0.557451 0.244463
vt 0.608342 0.229336
vt 0.625000 0.208672
vt 0.687500 0.541328
vt 0.687500 0.520664
vt 0.625000 0.520664
vt 0.625000 0.541328
vt 0.625000 0.437500
vt 0.555483 0.437500
vt 0.555483 0.500000
vt 0.625000 0.500000
vt 0.608342 0.520664
vt 0.557451 0.505537
vt 0.418119 0.505777
vt 0.386554 0.521560
vt 0.375000 0.250000
vt 0.625000 0.250000
vt 0.812500 0.520664
vt 0.555483 0.312500
vt 0.485967 0.312500
vt 0.375000 0.500000
vt 0.375000 0.750000
vt 0.625000 0.750000
vt 0.625000 0.500000
vt 0.375000 0.812500
vt 0.625000 0.812500
vt 0.375000 0.521560
vt 0.312500 0.521560
vt 0.375000 0.500000
vt 0.312500 0.500000
vt 0.418119 0.500000
vt 0.418119 0.437500
vt 0.375000 0.750000
vt 0.375000 1.000000
vt 0.625000 1.000000
vt 0.625000 0.750000
vt 0.125000 0.500000
vt 0.375000 0.500000
vt 0.625000 0.750000
vt 0.875000 0.750000
vt 0.875000 0.520664
vt 0.625000 0.250000
vt 0.555484 0.250000
vt 0.625000 0.312500
vn 0.0000 0.0000 -1.0000
vn 1.0000 0.0000 0.0000
vn 0.0000 -1.0000 0.0000
vn 0.0000 1.0000 0.0000
vn -0.0000 -0.9659 -0.2588
vn 0.0000 -0.7071 -0.7071
vn 0.0000 -0.2588 -0.9659
vn -1.0000 -0.0000 0.0000
vn 0.0000 0.9659 -0.2588
vn 0.0000 0.7071 -0.7071
vn -0.0000 0.2588 -0.9659
vn 0.0000 0.0000 1.0000
vn 0.0000 -0.9659 0.2588
vn 0.0000 -0.7071 0.7071
vn 0.0000 -0.2588 0.9659
vn 0.0000 0.9659 0.2588
vn 0.0000 0.7071 0.7071
vn 0.0000 0.2588 0.9659
usemtl Material
s off
f 23/1/1 28/2/1 10/3/1 3/4/1
f 19/5/2 18/6/2 62/7/2 63/8/2
f 24/9/3 2/10/3 39/11/3 65/12/3
f 36/13/4 14/14/4 40/15/4 75/16/4
f 31/17/5 7/18/5 9/19/5 30/20/5
f 30/20/6 9/19/6 8/21/6 29/22/6
f 29/23/7 8/24/7 6/25/7 35/26/7
f 41/27/8 40/28/8 14/29/8 16/30/8 17/31/8 15/32/8 6/25/8 8/33/8 9/34/8 7/35/8
f 25/36/9 11/37/9 13/38/9 26/39/9
f 26/40/10 13/41/10 12/42/10 27/43/10
f 27/43/11 12/42/11 10/3/11 28/2/11
f 2/10/2 4/44/2 5/45/2 3/4/2 10/3/2 12/46/2 13/47/2 11/37/2 38/48/2 39/11/2
f 1/49/3 19/50/3 63/51/3 59/52/3
f 35/26/2 34/53/2 33/54/2 32/55/2 36/13/2 75/56/2 77/57/2 31/17/2 30/20/2 29/23/2
f 1/58/1 20/59/1 18/60/1 19/61/1
f 11/37/4 25/36/4 69/62/4 38/48/4
f 2/10/5 24/9/5 21/63/5 4/64/5
f 4/64/6 21/63/6 22/65/6 5/66/6
f 5/67/7 22/68/7 23/1/7 3/4/7
f 18/69/4 20/70/4 58/71/4 62/72/4
f 59/73/8 58/74/8 20/75/8 1/76/8
f 6/25/1 15/32/1 34/53/1 35/26/1
f 7/18/3 31/17/3 77/57/3 41/77/3
f 14/14/9 36/13/9 32/55/9 16/78/9
f 16/79/10 32/80/10 33/54/10 17/81/10
f 65/12/8 69/62/8 25/36/8 26/40/8 27/43/8 28/2/8 23/1/8 22/65/8 21/63/8 24/9/8
f 17/81/11 33/54/11 34/53/11 15/32/11
f 68/82/12 43/83/12 50/84/12 74/85/12
f 77/86/1 41/87/1 40/88/1 75/56/1
f 61/89/2 63/8/2 62/7/2 60/90/2
f 70/91/3 65/12/3 39/11/3 42/92/3
f 84/93/4 75/16/4 40/15/4 54/94/4
f 79/95/13 78/96/13 49/97/13 47/98/13
f 78/96/14 76/99/14 48/100/14 49/97/14
f 76/101/15 83/102/15 46/103/15 48/104/15
f 41/27/8 47/105/8 49/106/8 48/107/8 46/103/8 55/108/8 57/109/8 56/110/8 54/111/8 40/28/8
f 71/112/16 72/113/16 53/114/16 51/115/16
f 72/116/17 73/117/17 52/118/17 53/119/17
f 73/117/18 74/85/18 50/84/18 52/118/18
f 42/92/2 39/11/2 38/48/2 51/115/2 53/120/2 52/121/2 50/84/2 43/83/2 45/122/2 44/123/2
f 37/124/3 59/52/3 63/51/3 61/125/3
f 83/102/2 76/101/2 78/96/2 79/95/2 77/57/2 75/56/2 84/93/2 80/126/2 81/127/2 82/128/2
f 37/129/12 61/130/12 60/131/12 64/132/12
f 39/11/1 65/133/1 69/134/1 38/48/1
f 51/115/4 38/48/4 69/62/4 71/112/4
f 42/92/13 44/135/13 66/136/13 70/91/13
f 44/135/14 45/137/14 67/138/14 66/136/14
f 45/139/15 43/83/15 68/82/15 67/140/15
f 63/141/1 59/142/1 58/143/1 62/144/1
f 60/145/4 62/72/4 58/71/4 64/146/4
f 59/73/8 37/147/8 64/148/8 58/74/8
f 46/103/12 83/102/12 82/128/12 55/108/12
f 47/98/3 41/77/3 77/57/3 79/95/3
f 54/94/16 56/149/16 80/126/16 84/93/16
f 56/150/17 57/151/17 81/127/17 80/152/17
f 65/12/8 70/91/8 66/136/8 67/138/8 68/82/8 74/85/8 73/117/8 72/116/8 71/112/8 69/62/8
f 57/151/18 55/108/18 82/128/18 81/127/18
o Cube.001_Cube.002
v -2.042047 1.663619 2.742047
v -2.300000 1.405666 3.000000
v -2.042047 1.663619 -2.742047
v -2.300000 1.405666 -3.000000
v 2.042047 1.663619 2.742047
v 2.300000 1.405666 3.000000
v 2.042047 1.663619 -2.742047
v 2.300000 1.405666 -3.000000
v 0.000000 1.663619 -2.742047
v 2.042047 1.990811 2.742047
v -2.042047 1.990811 2.742047
v -2.042047 1.990811 0.685512
v 2.042047 1.990811 0.685512
v -2.042047 1.663619 0.685512
v 2.042047 1.663619 0.685512
v -2.119381 0.663619 2.819381
v -2.300000 0.844238 3.000000
v -2.300000 0.844238 -3.000000
v -2.119381 0.663619 -2.819381
v 2.300000 0.844238 3.000000
v 2.119381 0.663619 2.819381
v 2.300000 0.844238 -3.000000
v 2.119381 0.663619 -2.819381
v -2.595083 1.152145 -0.801009
v -2.595083 3.152145 -0.801009
v -2.595083 1.152145 -2.801009
v -2.595083 3.152145 -2.801009
v -0.595083 1.152145 -0.801009
v -0.595083 3.152145 -0.801009
v -0.595083 1.152145 -2.801009
v -0.595083 3.152145 -2.801009
v 0.000000 1.601782 -2.087270
v 0.000000 4.973944 -4.916850
v 0.000000 0.968282 -2.842247
v 0.000000 4.340443 -5.671826
v 0.719314 1.601782 -2.087270
v 0.719314 4.973944 -4.916850
v 0.719314 0.968282 -2.842247
v 0.719314 4.340443 -5.671826
v 0.076602 0.672510 -6.477150
v 0.076602 4.637222 -5.131849
v 0.076602 0.923137 -6.949964
v 0.076602 4.887849 -5.604662
v 0.642712 0.672510 -6.477150
v 0.642712 4.637222 -5.131849
v 0.642712 0.923137 -6.949964
v 0.642712 4.887849 -5.604662
v -1.000000 -0.321545 -4.881373
v -0.796930 -0.101360 -5.325525
v -1.000000 -0.321545 -6.881373
v -0.796930 0.128318 -6.678304
v 1.000000 -0.321545 -4.881373
v 0.796930 -0.101360 -5.325525
v 1.000000 -0.321545 -6.881373
v 0.796930 0.128318 -6.678304
v -1.000000 0.372393 -4.542470
v -1.000000 1.020719 -6.881373
v 1.000000 1.020719 -6.881373
v 1.000000 0.372393 -4.542470
vt 0.420155 0.250000
vt 0.560512 0.250000
vt 0.560512 0.500000
vt 0.420155 0.500000
vt 0.420155 0.750000
vt 0.560512 0.750000
vt 0.560512 1.000000
vt 0.420155 1.000000
vt 0.639019 0.510748
vt 0.000000 0.000000
vt 0.639019 0.739252
vt 0.860981 0.510748
vt 0.750000 0.510748
vt 0.625000 0.500000
vt 0.875000 0.500000
vt 0.860981 0.739252
vt 0.420155 0.000000
vt 0.560512 0.000000
vt 0.000000 0.000000
vt 0.134816 0.507526
vt 0.134816 0.742474
vt 0.125000 0.750000
vt 0.125000 0.500000
vt 0.365184 0.507526
vt 0.375000 0.500000
vt 0.365184 0.742474
vt 0.375000 0.750000
vt 0.375000 0.000000
vt 0.625000 0.000000
vt 0.625000 0.250000
vt 0.375000 0.250000
vt 0.625000 0.500000
vt 0.375000 0.500000
vt 0.625000 0.750000
vt 0.375000 0.750000
vt 0.625000 1.000000
vt 0.375000 1.000000
vt 0.125000 0.500000
vt 0.125000 0.750000
vt 0.875000 0.500000
vt 0.875000 0.750000
vt 0.375000 0.000000
vt 0.625000 0.000000
vt 0.625000 0.250000
vt 0.375000 0.250000
vt 0.625000 0.500000
vt 0.375000 0.500000
vt 0.625000 0.750000
vt 0.375000 0.750000
vt 0.625000 1.000000
vt 0.375000 1.000000
vt 0.125000 0.500000
vt 0.125000 0.750000
vt 0.875000 0.500000
vt 0.875000 0.750000
vt 0.375000 0.000000
vt 0.625000 0.000000
vt 0.625000 0.250000
vt 0.375000 0.250000
vt 0.625000 0.500000
vt 0.375000 0.500000
vt 0.625000 0.750000
vt 0.375000 0.750000
vt 0.625000 1.000000
vt 0.375000 1.000000
vt 0.125000 0.500000
vt 0.125000 0.750000
vt 0.650384 0.525384
vt 0.849616 0.525384
vt 0.849616 0.724616
vt 0.650384 0.724616
vt 0.875000 0.500000
vt 0.875000 0.750000
vt 0.000000 0.000000
vt 0.000000 0.000000
vt 0.860981 0.739252
vt 0.639019 0.739252
vt 0.375000 0.000000
vt 0.625000 0.000000
vt 0.625000 0.250000
vt 0.375000 0.250000
vt 0.625000 0.500000
vt 0.375000 0.500000
vt 0.625000 0.750000
vt 0.375000 0.750000
vt 0.625000 1.000000
vt 0.375000 1.000000
vt 0.125000 0.500000
vt 0.125000 0.750000
vt 0.875000 0.500000
vt 0.875000 0.750000
vn 0.0000 0.0000 -1.0000
vn 0.0000 0.0000 1.0000
vn 1.0000 0.0000 0.0000
vn 0.7071 0.7071 0.0000
vn 0.0000 0.7071 -0.7071
vn 0.0000 0.7071 0.7071
vn -1.0000 0.0000 0.0000
vn -0.7071 0.7071 0.0000
vn 0.0000 1.0000 0.0000
vn -0.7071 -0.7071 0.0000
vn 0.0000 -0.7071 -0.7071
vn 0.7071 -0.7071 0.0000
vn 0.0000 -0.7071 0.7071
vn 0.0000 -1.0000 0.0000
vn 0.0000 -0.6428 -0.7660
vn 0.0000 0.6428 0.7660
vn 0.0000 -0.7660 0.6428
vn 0.0000 0.7660 -0.6428
vn 0.0000 0.3213 -0.9470
vn 0.0000 -0.3213 0.9470
vn 0.0000 -0.8835 -0.4683
vn 0.0000 0.8835 0.4683
vn 0.0000 -0.4388 0.8986
vn 0.0000 0.9859 0.1674
vn 0.9636 0.2602 0.0619
vn 0.0000 0.2219 0.9751
vn -0.9636 0.2602 0.0619
vn 0.0000 0.8556 -0.5176
usemtl Material.002
s off
f 102/153/19 88/154/19 92/155/19 106/156/19
f 104/157/20 90/158/20 86/159/20 101/160/20
f 106/156/21 92/155/21 90/158/21 104/157/21
f 92/155/22 91/161/22 99/162/22 89/163/22 90/158/22
f 87/164/23 93/165/23 91/161/23 92/166/23 88/167/23
f 86/159/24 90/158/24 89/163/24 85/168/24
f 101/169/25 86/170/25 88/154/25 102/153/25
f 85/168/26 98/171/26 87/164/26 88/167/26 86/170/26
f 99/162/27 91/161/27 87/164/27 98/171/27
f 103/172/28 100/173/28 101/174/28 102/175/28
f 107/176/29 103/172/29 102/175/29 106/177/29
f 105/178/30 107/176/30 106/156/30 104/157/30
f 100/173/31 105/178/31 104/179/31 101/174/31
f 103/172/32 107/176/32 105/178/32 100/173/32
f 116/180/25 117/181/25 119/182/25 118/183/25
f 118/183/33 119/182/33 123/184/33 122/185/33
f 122/185/21 123/184/21 121/186/21 120/187/21
f 120/187/34 121/186/34 117/188/34 116/189/34
f 118/190/35 122/185/35 120/187/35 116/191/35
f 123/184/36 119/192/36 117/193/36 121/186/36
f 124/194/25 125/195/25 127/196/25 126/197/25
f 126/197/37 127/196/37 131/198/37 130/199/37
f 130/199/21 131/198/21 129/200/21 128/201/21
f 128/201/38 129/200/38 125/202/38 124/203/38
f 126/204/39 130/199/39 128/201/39 124/205/39
f 131/198/40 127/206/40 125/207/40 129/200/40
f 132/208/25 140/209/25 141/210/25 134/211/25
f 134/211/19 141/210/19 142/212/19 138/213/19
f 138/213/21 142/212/21 143/214/21 136/215/21
f 136/215/41 143/214/41 140/216/41 132/217/41
f 134/218/32 138/213/32 136/215/32 132/219/32
f 139/220/42 135/221/42 133/222/42 137/223/42
f 133/222/43 135/221/43 141/224/43 140/225/43
f 135/221/44 139/220/44 142/212/44 141/224/44
f 139/220/45 137/223/45 143/214/45 142/212/45
f 137/223/46 133/222/46 140/225/46 143/214/46
usemtl Material.003
f 99/162/19 98/171/19 96/226/19 97/227/19
f 95/228/27 94/229/27 97/227/27 96/226/27
f 98/171/25 85/168/25 95/228/25 96/226/25
f 85/168/20 89/163/20 94/229/20 95/228/20
f 89/163/21 99/162/21 97/227/21 94/229/21
f 108/230/25 109/231/25 111/232/25 110/233/25
f 110/233/19 111/232/19 115/234/19 114/235/19
f 114/235/21 115/234/21 113/236/21 112/237/21
f 112/237/20 113/236/20 109/238/20 108/239/20
f 110/240/32 114/235/32 112/237/32 108/241/32
f 115/234/27 111/242/27 109/243/27 113/236/27
